<?xml version="1.0" encoding="utf-8"?>
<!-- Generator: Adobe Illustrator 16.0.0, SVG Export Plug-In . SVG Version: 6.00 Build 0)  -->
<!DOCTYPE svg PUBLIC "-//W3C//DTD SVG 1.1//EN" "http://www.w3.org/Graphics/SVG/1.1/DTD/svg11.dtd">
<svg version="1.1" id="Layer_1" xmlns="http://www.w3.org/2000/svg" xmlns:xlink="http://www.w3.org/1999/xlink" x="0px" y="0px"
	 width="500px" height="500px" viewBox="0 0 500 500" enable-background="new 0 0 500 500" xml:space="preserve">
<g>
	<path fill="#DD675B" d="M249,378.549c-10.887,11.818-21.9,22.323-32.833,31.241c-15.902,12.974-31.224,22.089-44.304,26.359
		c-12.141,3.967-22.05,3.809-29.453-0.465c-7.401-4.272-12.491-12.776-15.127-25.272c-2.84-13.465-2.356-31.146,0.929-51.404
		c7.066-43.586,27.38-95.465,56.751-146.349l-0.176,0.046c19.57-33.897,41.583-64.554,64.213-89.507v-15.037
		c-25.157,26.139-50.572,60.019-73.159,99.14c-61.993,107.378-79.199,213.506-38.43,237.044
		c25.655,14.811,68.155-6.619,111.589-51.296V378.549z"/>
	<path fill="#DD675B" d="M185.002,212.59c-0.013,0.023-0.026,0.045-0.039,0.068l0,0L185.002,212.59z"/>
</g>
<path fill="#A675B4" d="M249,325.162c-58.535-0.064-113.394-8.692-154.535-24.313c-19.187-7.285-34.742-15.997-44.982-25.188
	c-9.504-8.531-14.323-17.191-14.323-25.739c0-8.547,4.819-17.206,14.322-25.737c10.241-9.192,25.795-17.743,44.982-25.028
	c41.142-15.621,96-24.089,154.535-24.153v-10.318c-123.683,0.136-223.839,38.244-223.839,85.236
	c0.001,46.992,100.155,85.101,223.839,85.236V325.162z"/>
<path fill="#44BDA5" d="M249,106.793V391.68c43.893,45.606,86.996,67.628,112.912,52.665
	c40.771-23.538,23.564-129.665-38.43-237.043C300.499,167.495,274.588,133.113,249,106.793z"/>
<path fill="#3CA590" d="M377.777,339.623c-8.966-39.455-27.418-85.768-54.295-132.322c-6.682-11.571-13.615-22.667-20.711-33.257
	c-12.367-3.042-25.164-5.75-38.309-8.067c-5.188-0.915-10.342-1.748-15.463-2.514v172.715
	C296.646,343.409,341.229,344.238,377.777,339.623z"/>
<path fill="#A675B4" d="M249.661,164.682c-0.221,0-0.44,0.003-0.661,0.003v170.473c0.221,0,0.44,0.003,0.662,0.003
	c123.988,0,224.5-38.163,224.5-85.24C474.162,202.844,373.649,164.681,249.661,164.682z"/>
<path fill="#91669E" d="M288.798,333.867c8.824-9.194,17.575-18.923,26.161-29.155c34.555-41.181,60.771-83.588,76.451-120.889
	c-38.653-11.964-87.99-19.142-141.749-19.142c-0.221,0-0.44,0.003-0.661,0.003v170.473c0.221,0,0.44,0.003,0.662,0.003
	C263.012,335.16,276.088,334.715,288.798,333.867z"/>
<path fill="#DD675B" d="M361.912,55.498c-25.916-14.962-69.02,7.059-112.912,52.665V393.05
	c25.588-26.319,51.499-60.701,74.482-100.509C385.476,185.165,402.683,79.036,361.912,55.498z"/>
<path fill="#D69F3E" d="M249.262,207.584c-0.088,0-0.174,0.006-0.262,0.007v83.982c0.088,0.001,0.174,0.007,0.262,0.007
	c23.195,0,41.998-18.803,41.998-41.999C291.26,226.387,272.457,207.584,249.262,207.584z"/>
<path fill="#F4B647" d="M249,207.591c-23.073,0.142-41.735,18.884-41.735,41.99c0,23.108,18.662,41.85,41.735,41.992V207.591z"/>
<g>
	<path fill="#44BDA5" d="M249,376.645c-22.631-24.953-44.643-55.611-64.213-89.508l0.176,0.046
		c-29.371-50.884-49.685-102.763-56.751-146.349c-3.285-20.259-3.77-37.939-0.929-51.404c2.636-12.496,7.727-21,15.127-25.272
		c7.403-4.273,17.312-4.432,29.453-0.465c13.08,4.271,28.402,13.386,44.304,26.359c10.932,8.918,21.946,19.423,32.833,31.241v-14.5
		c-43.434-44.677-85.934-66.107-111.589-51.296c-40.769,23.538-23.563,129.666,38.43,237.044
		c22.587,39.121,48.002,73.001,73.159,99.141V376.645z"/>
	<path fill="#44BDA5" d="M184.963,287.183L184.963,287.183c0.013,0.022,0.026,0.046,0.039,0.068L184.963,287.183z"/>
</g>
</svg>
