<svg id="Layer_1" data-name="Layer 1" xmlns="http://www.w3.org/2000/svg" xmlns:xlink="http://www.w3.org/1999/xlink" viewBox="0 0 819.86 724"><defs><style>.cls-1{fill:none;}.cls-2{clip-path:url(#clip-path);}.cls-3{fill:#44bda5;}.cls-4{clip-path:url(#clip-path-2);}.cls-5{fill:#338e7c;}.cls-6{fill:#a675b4;}.cls-7{clip-path:url(#clip-path-3);}.cls-8{fill:#7d5887;}.cls-9{fill:#dd675b;}.cls-10{fill:#b78935;}.cls-11{clip-path:url(#clip-path-4);}.cls-12{fill:#f4b647;}</style><clipPath id="clip-path" transform="translate(-90.07 -138)"><rect class="cls-1" x="500" y="138" width="409.93" height="724"/></clipPath><clipPath id="clip-path-2" transform="translate(-90.07 -138)"><ellipse class="cls-1" cx="500" cy="500" rx="140.86" ry="409.93" transform="translate(-183.01 316.99) rotate(-30)"/></clipPath><clipPath id="clip-path-3" transform="translate(-90.07 -138)"><ellipse class="cls-1" cx="500" cy="500" rx="409.93" ry="140.86"/></clipPath><clipPath id="clip-path-4" transform="translate(-90.07 -138)"><rect class="cls-1" x="90.07" y="138" width="409.93" height="724"/></clipPath></defs><title>react-materialize-logo</title><g class="cls-2"><ellipse class="cls-3" cx="500" cy="500" rx="140.86" ry="409.93" transform="translate(-273.08 178.99) rotate(-30)"/><g class="cls-4"><path class="cls-5" d="M524.46,361.28L475.54,638.72c223,39.31,414.66,9.07,428.17-67.54S747.42,400.59,524.46,361.28Z" transform="translate(-90.07 -138)"/></g><ellipse class="cls-6" cx="409.93" cy="362" rx="409.93" ry="140.86"/><g class="cls-7"><path class="cls-8" d="M763.5,186c-59.6-50-225.88,50-371.41,223.48L607.91,590.55C753.44,417.11,823.1,236,763.5,186Z" transform="translate(-90.07 -138)"/></g><ellipse class="cls-9" cx="500" cy="500" rx="409.93" ry="140.86" transform="matrix(0.5, -0.87, 0.87, 0.5, -273.08, 545.01)"/><circle class="cls-10" cx="409.93" cy="362" r="73.25"/></g><g class="cls-11"><path class="cls-3" d="M322.84,138v5c35.08,0,83.65,28.33,136.77,79.77,54.43,52.71,110.56,127,158.05,209.3,54.48,94.36,93.06,190.29,108.62,270.12,7.51,38.49,9.23,71,5.12,96.72S717.57,842,702.47,850.68a49.91,49.91,0,0,1-25.3,6.32c-35.08,0-83.65-28.33-136.77-79.76-54.44-52.71-110.57-127-158.06-209.3-54.48-94.36-93.06-190.29-108.62-270.12-7.51-38.49-9.23-71-5.12-96.72s13.84-43.06,28.94-51.77c7.26-4.19,15.77-6.32,25.3-6.32v-5m0,0c-10.29,0-19.63,2.27-27.8,7-67.37,38.9-30.23,229.38,83,425.44C477.49,742.73,602.58,862,677.17,862c10.29,0,19.63-2.27,27.8-7,67.37-38.9,30.23-229.38-83-425.44C522.51,257.27,397.42,138,322.83,138h0Z" transform="translate(-90.07 -138)"/><path class="cls-3" d="M322.83,143c35.08,0,83.66,28.33,136.77,79.77,54.44,52.71,110.57,127,158.06,209.3,54.48,94.36,93.06,190.29,108.62,270.12,7.51,38.49,9.23,71,5.12,96.72S717.57,842,702.47,850.68a49.9,49.9,0,0,1-25.3,6.32c-35.08,0-83.66-28.33-136.77-79.77-54.44-52.71-110.57-127-158.06-209.3-54.48-94.36-93.06-190.29-108.62-270.12-7.51-38.49-9.23-71-5.12-96.72s13.84-43.06,28.94-51.77a49.9,49.9,0,0,1,25.3-6.32m0-5c-10.3,0-19.62,2.27-27.8,7-67.37,38.9-30.23,229.38,83,425.44C477.48,742.72,602.58,862,677.17,862c10.3,0,19.62-2.27,27.8-7,67.37-38.9,30.23-229.38-83-425.44C522.52,257.28,397.42,138,322.83,138h0Z" transform="translate(-90.07 -138)"/><path class="cls-6" d="M500,364.14c109,0,211.32,14.56,288.24,41,37.09,12.75,66.13,27.52,86.32,43.93s30.37,33.51,30.37,51-10.22,34.58-30.37,51-49.23,31.18-86.32,43.93c-76.92,26.43-179.28,41-288.24,41s-211.32-14.56-288.24-41c-37.09-12.75-66.13-27.52-86.32-43.93s-30.37-33.51-30.37-51,10.22-34.58,30.37-51,49.23-31.18,86.32-43.93c76.92-26.43,179.28-41,288.24-41m0-5C273.6,359.14,90.07,422.2,90.07,500S273.6,640.86,500,640.86,909.93,577.8,909.93,500,726.4,359.14,500,359.14h0Z" transform="translate(-90.07 -138)"/><path class="cls-9" d="M677.17,143a49.9,49.9,0,0,1,25.29,6.32c15.1,8.72,24.84,26.14,28.94,51.77s2.39,58.23-5.12,96.72c-15.57,79.83-54.15,175.76-108.62,270.12C570.17,650.19,514,724.52,459.6,777.23,406.49,828.67,357.91,857,322.83,857a49.9,49.9,0,0,1-25.3-6.32c-15.1-8.72-24.84-26.14-28.94-51.77s-2.39-58.23,5.12-96.72c15.57-79.83,54.15-175.76,108.62-270.12C429.83,349.81,486,275.48,540.4,222.77,593.51,171.33,642.09,143,677.17,143h0m0-5C602.58,138,477.48,257.28,378,429.57,264.81,625.64,227.66,816.11,295,855c8.17,4.72,17.5,7,27.8,7C397.42,862,522.52,742.72,622,570.43,735.19,374.36,772.34,183.89,705,145c-8.17-4.72-17.5-7-27.8-7h0Z" transform="translate(-90.07 -138)"/><circle class="cls-12" cx="409.93" cy="362" r="73.25"/></g></svg>